<svg width="22" height="32" viewBox="0 0 22 32" fill="none" xmlns="http://www.w3.org/2000/svg">
<path d="M18.9999 0H2.99994C1.52988 0 0.333252 1.19594 0.333252 2.66669V31.3334C0.333252 31.5918 0.483002 31.8275 0.717377 31.9369C0.950439 32.0462 1.22781 32.0104 1.427 31.8458L8.99994 25.5345L16.5729 31.8457C16.6953 31.9473 16.8463 32 16.9999 32C17.0963 32 17.1926 31.9792 17.2825 31.9369C17.5169 31.8275 17.6666 31.5918 17.6666 31.3334V17.3334H20.9999C21.3684 17.3334 21.6666 17.0352 21.6666 16.6667V2.66669C21.6666 1.19594 20.47 0 18.9999 0ZM16.3333 2.66669V29.9102L9.427 24.1543C9.30331 24.0514 9.151 24 8.99994 24C8.84888 24 8.69657 24.0514 8.57288 24.1543L1.66663 29.9102V2.66669C1.66663 1.93169 2.26431 1.33337 2.99994 1.33337H16.6914C16.4635 1.72594 16.3333 2.18162 16.3333 2.66669ZM20.3333 16H17.6666V2.66669C17.6666 1.93169 18.2643 1.33337 18.9999 1.33337C19.7356 1.33337 20.3332 1.93169 20.3332 2.66669L20.3333 16Z" fill="#F2994A"/>
</svg>
